# xmcd CD database file
#
# Track frame offsets:
#	182
#	14607
#	32117
#	50695
#	70150
#	87912
#	106072
#	121232
#	138727
#	156247
#
# Disc length: 2340 seconds
#
# Revision: 0
# Processed by: cddbd v1.5.1PL0 Copyright (c) Steve Scherf et al.
# Submitted via: CDex 1.51
#
DISCID=8709220a
DTITLE=Bruce Roberts - Bruce Roberts
DYEAR=1977
DGENRE=Weastcoast/AOR
TTITLE0=I Don't Break Easily
TTITLE1=Our Night
TTITLE2=I Don't Wanna Go
TTITLE3=I'd Rather Be Alone
TTITLE4=Starmaker
TTITLE5=This Boy
TTITLE6=Me And My Love
TTITLE7=The Car Song
TTITLE8=Steal Away Again
TTITLE9=I'm Comin' Home Again
EXTD=YEAR: 1977
EXTT0=
EXTT1=
EXTT2=
EXTT3=
EXTT4=
EXTT5=
EXTT6=
EXTT7=
EXTT8=
EXTT9=
PLAYORDER=
